<svg id="Especificaciones" xmlns="http://www.w3.org/2000/svg" viewBox="0 0 58 58"><title>limpieza</title><circle cx="35.376" cy="22.458" r="17.5" style="fill:#c9e8f4"/><path d="M32.53,52.966h0l-21.265-.01a1.814,1.814,0,0,1-1.818-1.669L7.4,28.682a.519.519,0,1,1,1.034-.093L10.482,51.2a.782.782,0,0,0,.783.722l21.265.01a.519.519,0,1,1,0,1.038Z"/><path d="M38.168,41.8a.385.385,0,0,1-.048,0,.518.518,0,0,1-.47-.563L38.782,28.69a.519.519,0,0,1,1.034.093L38.684,41.325A.518.518,0,0,1,38.168,41.8Z"/><path d="M40.979,29.155H6.245A1.207,1.207,0,0,1,5.039,27.95v-4a1.207,1.207,0,0,1,1.206-1.206H40.979a1.206,1.206,0,0,1,1.2,1.206v4A1.206,1.206,0,0,1,40.979,29.155ZM6.245,23.788a.167.167,0,0,0-.167.167v4a.166.166,0,0,0,.167.166H40.979a.166.166,0,0,0,.167-.166v-4a.167.167,0,0,0-.167-.167Z"/><path d="M23.612,39.173a40.947,40.947,0,0,1-11.367-1.61,10.019,10.019,0,0,1-7.206-9.58.52.52,0,0,1,1.039,0,8.974,8.974,0,0,0,6.455,8.582,39.882,39.882,0,0,0,22.158,0,8.975,8.975,0,0,0,6.455-8.582.519.519,0,1,1,1.038,0,10.018,10.018,0,0,1-7.2,9.58A40.947,40.947,0,0,1,23.612,39.173Z"/><path d="M42.33,49.258a10.342,10.342,0,0,1-2.275-.253l-.651-.147a9.354,9.354,0,0,0-4.092,0l-.652.147a10.335,10.335,0,0,1-2.275.253,3.3,3.3,0,0,1-3.426-3.142V43.308a3.3,3.3,0,0,1,3.426-3.143,10.4,10.4,0,0,1,2.275.253l.652.147a9.354,9.354,0,0,0,4.092,0l.652-.147a10.387,10.387,0,0,1,2.274-.253,3.3,3.3,0,0,1,3.426,3.143v2.808A3.3,3.3,0,0,1,42.33,49.258Zm-4.972-1.664a10.338,10.338,0,0,1,2.274.251l.652.147a9.3,9.3,0,0,0,2.046.228,2.262,2.262,0,0,0,2.388-2.1V43.308a2.262,2.262,0,0,0-2.388-2.1,9.3,9.3,0,0,0-2.046.227l-.652.147a10.391,10.391,0,0,1-4.549,0l-.652-.147a9.291,9.291,0,0,0-2.046-.227A2.262,2.262,0,0,0,30,43.308v2.808a2.262,2.262,0,0,0,2.387,2.1,9.292,9.292,0,0,0,2.046-.228l.652-.147A10.347,10.347,0,0,1,37.358,47.594Z"/><path d="M42.33,52.968a10.342,10.342,0,0,1-2.275-.253l-.651-.147a9.354,9.354,0,0,0-4.092,0l-.652.147a10.335,10.335,0,0,1-2.275.253,3.3,3.3,0,0,1-3.426-3.143V46.116a.52.52,0,1,1,1.039,0v3.709a2.261,2.261,0,0,0,2.387,2.1,9.291,9.291,0,0,0,2.046-.227l.652-.147a10.391,10.391,0,0,1,4.549,0l.652.147a9.3,9.3,0,0,0,2.046.227,2.261,2.261,0,0,0,2.388-2.1V46.116a.519.519,0,1,1,1.038,0v3.709A3.3,3.3,0,0,1,42.33,52.968Z"/><path d="M9.343,23.788l-.039,0a.519.519,0,0,1-.479-.556,5.616,5.616,0,0,1,7.236-4.956A5.616,5.616,0,0,1,26.91,18.8,5.843,5.843,0,0,1,29.7,19.935,5.615,5.615,0,0,1,40.1,23.2a.519.519,0,1,1-1.036-.064,4.578,4.578,0,0,0-8.536-2.562.915.915,0,0,1-.628.444.936.936,0,0,1-.758-.2,4.831,4.831,0,0,0-2.439-1,.924.924,0,0,1-.8-.74,4.577,4.577,0,0,0-8.884-.4.923.923,0,0,1-1.171.618,4.576,4.576,0,0,0-5.992,4.01A.519.519,0,0,1,9.343,23.788Z"/><path d="M30.157,16.889a2.023,2.023,0,1,1,2.022-2.023A2.025,2.025,0,0,1,30.157,16.889Zm0-3.007a.984.984,0,1,0,.984.984A.985.985,0,0,0,30.157,13.882Z"/><path d="M13.322,16.889a2.448,2.448,0,1,1,2.447-2.447A2.45,2.45,0,0,1,13.322,16.889Zm0-3.856a1.409,1.409,0,1,0,1.409,1.409A1.41,1.41,0,0,0,13.322,13.033Z"/><path d="M37.244,14.747a3.36,3.36,0,1,1,3.359-3.36A3.363,3.363,0,0,1,37.244,14.747Zm0-5.681a2.322,2.322,0,1,0,2.321,2.321A2.323,2.323,0,0,0,37.244,9.066Z"/><path d="M33.657,43.709a.512.512,0,0,1-.368-.153.518.518,0,0,1-.151-.366.434.434,0,0,1,.011-.1.393.393,0,0,1,.028-.1.487.487,0,0,1,.047-.091.56.56,0,0,1,.065-.078.534.534,0,0,1,.734,0,.408.408,0,0,1,.065.078.487.487,0,0,1,.047.091.6.6,0,0,1,.031.1.693.693,0,0,1,.011.1.524.524,0,0,1-.52.519Z"/><path d="M32.84,46.983a.581.581,0,0,1-.1-.011.714.714,0,0,1-.1-.031.5.5,0,0,1-.088-.047.549.549,0,0,1-.081-.065.51.51,0,0,1-.15-.368.534.534,0,0,1,.038-.2.469.469,0,0,1,.047-.089.753.753,0,0,1,.065-.08.526.526,0,0,1,.47-.143.714.714,0,0,1,.1.031.653.653,0,0,1,.091.047.481.481,0,0,1,.078.065.5.5,0,0,1,.065.08.466.466,0,0,1,.046.089.618.618,0,0,1,.031.095.589.589,0,0,1,.011.1.517.517,0,0,1-.153.368.462.462,0,0,1-.081.065.435.435,0,0,1-.088.047.6.6,0,0,1-.1.031A.589.589,0,0,1,32.84,46.983Z"/><path d="M38.732,43.964a.513.513,0,0,1-.2-.039.518.518,0,0,1-.322-.478.5.5,0,0,1,.042-.2.647.647,0,0,1,.046-.091.523.523,0,0,1,.8-.078.839.839,0,0,1,.065.078.783.783,0,0,1,.047.091.5.5,0,0,1,.028.1.448.448,0,0,1,.01.1.514.514,0,0,1-.519.517Z"/><path d="M41.292,46.845a.521.521,0,0,1-.369-.153.514.514,0,0,1-.15-.366.428.428,0,0,1,.01-.1.418.418,0,0,1,.029-.1.566.566,0,0,1,.046-.088.64.64,0,0,1,.065-.078.524.524,0,0,1,.47-.143.4.4,0,0,1,.1.029.447.447,0,0,1,.091.049.369.369,0,0,1,.078.065.52.52,0,0,1,.153.366.509.509,0,0,1-.153.366A.519.519,0,0,1,41.292,46.845Z"/><path d="M42.927,44.119a.51.51,0,0,1-.366-.153.517.517,0,0,1,0-.734.535.535,0,0,1,.732,0,.52.52,0,0,1-.366.887Z"/><path d="M36.957,46.313a.46.46,0,0,1-.1-.011.435.435,0,0,1-.1-.028.448.448,0,0,1-.088-.049.491.491,0,0,1-.081-.065.538.538,0,0,1-.065-.078.528.528,0,0,1-.046-.088.387.387,0,0,1-.029-.1.44.44,0,0,1-.011-.1.428.428,0,0,1,.011-.1.376.376,0,0,1,.029-.1.537.537,0,0,1,.046-.089.713.713,0,0,1,.065-.077.519.519,0,0,1,.47-.143.355.355,0,0,1,.1.029.4.4,0,0,1,.091.049.4.4,0,0,1,.078.065.52.52,0,0,1,.153.366.7.7,0,0,1-.01.1.663.663,0,0,1-.029.1.634.634,0,0,1-.049.088.611.611,0,0,1-.065.078A.519.519,0,0,1,36.957,46.313Z"/></svg>